<?xml version="1.0" encoding="UTF-8"?>
<svg id="Layer_1" xmlns="http://www.w3.org/2000/svg" version="1.1" viewBox="0 0 612 792">
  <!-- Generator: Adobe Illustrator 29.1.0, SVG Export Plug-In . SVG Version: 2.1.0 Build 142)  -->
  <defs>
    <style>
      .st0, .st1 {
        fill: #231f20;
      }

      .st1 {
        stroke: #aec0e3;
      }
    </style>
  </defs>
  <path class="st1" d="M135.6,460.1"/>
  <path class="st1" d="M133.8,460"/>
  <g>
    <path class="st0" d="M299.1,324.9c1.4,0,2.5-1.2,2.5-2.6s-1.1-2.6-2.5-2.6-2.5,1.2-2.5,2.6,1.1,2.6,2.5,2.6"/>
    <path class="st0" d="M299.1,340.6c1.4,0,2.5-1.2,2.5-2.6s-1.1-2.6-2.5-2.6-2.5,1.2-2.5,2.6,1.1,2.6,2.5,2.6"/>
    <path class="st0" d="M299.1,356.2c1.4,0,2.5-1.2,2.5-2.6s-1.1-2.6-2.5-2.6-2.5,1.2-2.5,2.6,1.1,2.6,2.5,2.6"/>
    <path class="st0" d="M299.1,371.8c1.4,0,2.5-1.2,2.5-2.6s-1.1-2.6-2.5-2.6-2.5,1.2-2.5,2.6,1.1,2.6,2.5,2.6"/>
    <path class="st0" d="M299.1,387.5c1.4,0,2.5-1.2,2.5-2.6s-1.1-2.6-2.5-2.6-2.5,1.2-2.5,2.6,1.1,2.6,2.5,2.6"/>
    <path class="st0" d="M299.1,403.1c1.4,0,2.5-1.2,2.5-2.6s-1.1-2.6-2.5-2.6-2.5,1.2-2.5,2.6,1.1,2.6,2.5,2.6"/>
    <path class="st0" d="M299.1,418.7c1.4,0,2.5-1.2,2.5-2.6s-1.1-2.6-2.5-2.6-2.5,1.2-2.5,2.6,1.1,2.6,2.5,2.6"/>
    <path class="st0" d="M299.1,434.3c1.4,0,2.5-1.2,2.5-2.6s-1.1-2.6-2.5-2.6-2.5,1.2-2.5,2.6,1.1,2.6,2.5,2.6"/>
    <path class="st0" d="M299.1,450c1.4,0,2.5-1.2,2.5-2.6s-1.1-2.6-2.5-2.6-2.5,1.2-2.5,2.6,1.1,2.6,2.5,2.6"/>
    <path class="st0" d="M580.2,372.3l.7,3.4,20.4,1.1v-18.9c-4.7-1.9-16.7-4.3-28.4-4.3-17.3,0-32.8,7.7-32.8,25.8s13.9,22,25,23.9c7.3,1.2,13.2,1.8,13.2,5.8s-2.3,4.7-7.6,4.7-5.9-.3-7.4-.7c-1.2-.3-1.8-.7-2-2.3l-.8-4-19.8-1.2v17.3c4.9,2.6,15.4,5.1,28.9,5.1,20.1,0,33.8-8.1,33.8-25.5s-14.6-20.8-25.6-22.9c-6.8-1.4-12.3-2.3-12.3-6.1s3.4-3.6,6.9-3.6,4.9.3,6.5.8c.8.3,1.2.5,1.5,1.8M486.6,431.5l17.8.9c4.3.3,8.2.9,8.2,4.2s-5.1,4.7-11.5,4.7-16.6-.1-16.6-5.3.5-2.8,2-4.6M509.4,380.6c0,5-3.6,8.1-8.4,8.1s-8.1-3.2-8.1-8c0-6.8,3.9-9.3,8.4-9.3s8.1,3.2,8.1,9.2M528.3,370.3l.7-.7h11.7v-14.6h-26.7c-2.8-.8-7.8-1.5-13.5-1.5-23.1,0-33.9,12.6-33.9,26.9s5.8,17.7,13.4,20.8c-8.9,6.5-14,10.5-14,16.6s1.5,7.3,6.2,9.3c-3.8,3.8-7.2,7.4-7.2,13.5,0,9.7,8.6,16.1,34.6,16.1s40.1-8.8,40.1-25.2-14.9-20-37.8-21.3l-12-.7,4.3-4.6c2,.3,5.4.7,9.4.7,15.7,0,29.3-8.1,29.3-22.1s-2.4-10.4-4.6-13.1M420.1,405.1v-28.2c2-1.1,4.5-1.6,6.3-1.6,5.8,0,8.6,5.7,8.6,15s-2,16.3-7.8,16.3-4.7-.5-7.2-1.5M384,440.8v14.2h53.2v-14l-15.4-1.5c-2-.1-2.3-.5-2.3-2.7v-14.8c4.9,3.8,12,6.2,18.4,6.2,14.7,0,27.3-10.3,27.3-38.7s-11.5-35.8-26.5-35.8-14.4,1.9-21.9,7.7l-.9-.3-1.2-5.9h-29.4l-1.9,14.6,6.8,2.6c1.4.5,1.8,1.4,1.8,2.8v62c0,2.2-.8,2.7-2.7,3l-5.1.8ZM357.8,350.3l1.1,10.5,21.3,1.8v-29.7c-7.6-3.2-18.4-6.1-30.4-6.1-22,0-38.3,10.9-38.3,33.1s15.3,26.3,27.8,29.4c8.6,2.2,16.1,3.8,16.1,10.3s-3.9,8.1-12,8.1-6.1-.4-7.3-.5c-1.6-.3-1.9-.7-2.2-2.2l-2.8-13.5h-21.2v30.5c6.2,2.8,21.5,5.9,33.5,5.9,22,0,40.1-9.7,40.1-33.1s-15.9-26.6-28.6-30.2c-8.4-2.4-15.3-4.2-15.3-10s3.4-7.3,9.6-7.3,3.5,0,6.3.4c1.3.1,2,.5,2.3,2.6M251.9,409c-4.9,0-8.4-3.8-8.4-18.6s4.2-17.6,8.6-17.6,8,3.2,8,17.4-3.8,18.8-8.2,18.8M251.2,427.9c26.7,0,38.6-15,38.6-38.2s-10.4-36.2-37.3-36.2-38.9,14.7-38.9,37.1,11.1,37.3,37.5,37.3M172.1,412.3v14h42.9v-14l-5.1-.9c-2-.4-2.2-.5-2.2-2.7v-84.2h-35.2l-1.9,14.6,6.9,2.6c1.4.5,1.8,1.3,1.8,2.8v64.3c0,2-.3,2.3-2.2,2.7l-5,.9ZM134.5,409c-4.9,0-8.4-3.8-8.4-18.6s4.2-17.6,8.6-17.6,8,3.2,8,17.4-3.8,18.8-8.2,18.8M133.9,427.9c26.7,0,38.6-15,38.6-38.2s-10.4-36.2-37.3-36.2-38.9,14.7-38.9,37.1,11.1,37.3,37.5,37.3M92.3,420.1v-29.7h-20.1l-2,13c-.4,2.6-.8,2.7-2.8,3.1-1.9.4-5.5.7-8.1.7-12.6,0-20.4-9.2-20.4-29.8s8.2-29.3,21.3-29.3,5.7.3,7.3.7c1.4.4,1.8.9,2,2.6l2,13.2,20.7,1.6v-31.3c-8.1-5.1-21.1-8-31.6-8-34.7,0-52.1,21.5-52.1,50.5s14.6,50.6,48.7,50.6,26.6-3,35.1-7.8"/>
  </g>
  <g>
    <path class="st0" d="M176.8,446.1h0l1.5-9.9h3v13.9h-2.1v-10h0l-1.5,10h-2.1l-1.6-9.8h0v9.8h-1.9v-13.9h3l1.6,9.9Z"/>
    <path class="st0" d="M198,450.1h-2.2l-.4-2.5h-2.7l-.4,2.5h-2l2.2-13.9h3.2l2.2,13.9ZM193,445.7h2.1l-1-7h0l-1,7Z"/>
    <path class="st0" d="M210.1,442.4h3.1v4.4c0,2.2-1.1,3.5-3.3,3.5s-3.3-1.3-3.3-3.5v-7.2c0-2.2,1.1-3.5,3.3-3.5s3.3,1.3,3.3,3.5v1.3h-2.1v-1.5c0-1-.4-1.4-1.1-1.4s-1.1.4-1.1,1.4v7.5c0,1,.4,1.3,1.1,1.3s1.1-.4,1.1-1.3v-2.6h-1v-2Z"/>
    <path class="st0" d="M229.6,450.1h-2.2l-.4-2.5h-2.7l-.4,2.5h-2l2.2-13.9h3.2l2.2,13.9ZM224.6,445.7h2.1l-1-7h0l-1,7Z"/>
    <path class="st0" d="M244.6,436.2v1.9l-4.1,10h4.1v2h-6.4v-1.9l4.1-10h-3.9v-2h6.2Z"/>
    <path class="st0" d="M253.8,436.2h2.2v13.9h-2.2v-13.9Z"/>
    <path class="st0" d="M267.5,440.1h0v10.1h-2v-13.9h2.7l2.2,8.3h0v-8.3h1.9v13.9h-2.2l-2.7-10.1Z"/>
    <path class="st0" d="M284.1,442.1h3v2h-3v4.1h3.8v2h-6v-13.9h6v2h-3.8v3.9Z"/>
  </g>
</svg>